<svg version="1.1" id="Layer_1" xmlns="http://www.w3.org/2000/svg" xmlns:xlink="http://www.w3.org/1999/xlink" viewBox="-20.48 -20.48 552.96 552.96" xml:space="preserve" width="180px" height="180px" fill="#000000"><g id="SVGRepo_bgCarrier" stroke-width="0"></g><g id="SVGRepo_tracerCarrier" stroke-linecap="round" stroke-linejoin="round"></g><g id="SVGRepo_iconCarrier"> <path style="fill:#507C5C;" d="M467.162,512H44.838c-7.584,0-13.734-6.149-13.734-13.734V13.734C31.103,6.149,37.253,0,44.838,0 h422.325c7.584,0,13.734,6.149,13.734,13.734v252.338c0,7.586-6.15,13.734-13.734,13.734s-13.734-6.149-13.734-13.734V27.469H58.572 v457.062h394.856V349.393c0-7.586,6.15-13.734,13.734-13.734s13.734,6.149,13.734,13.734v148.872 C480.897,505.851,474.748,512,467.162,512z"></path> <rect x="118.652" y="67.265" style="fill:#CFF09E;" width="274.69" height="54.481"></rect> <path style="fill:#507C5C;" d="M393.345,135.48h-274.69c-7.584,0-13.734-6.149-13.734-13.734V67.266 c0-7.586,6.15-13.734,13.734-13.734h274.69c7.584,0,13.734,6.149,13.734,13.734v54.481 C407.079,129.331,400.931,135.48,393.345,135.48z M132.39,108.011H379.61v-27.01H132.39V108.011z"></path> <rect x="255.997" y="174.923" style="fill:#CFF09E;" width="137.345" height="54.481"></rect> <path style="fill:#507C5C;" d="M393.345,243.143H256c-7.584,0-13.734-6.149-13.734-13.734v-54.481 c0-7.586,6.15-13.734,13.734-13.734h137.345c7.584,0,13.734,6.149,13.734,13.734v54.481 C407.079,236.994,400.931,243.143,393.345,243.143z M269.734,215.674H379.61v-27.012H269.734V215.674z"></path> <rect x="255.997" y="282.587" style="fill:#CFF09E;" width="137.345" height="54.481"></rect> <g> <path style="fill:#507C5C;" d="M393.345,350.806H256c-7.584,0-13.734-6.149-13.734-13.734v-54.481 c0-7.586,6.15-13.734,13.734-13.734h137.345c7.584,0,13.734,6.149,13.734,13.734v54.481 C407.079,344.658,400.931,350.806,393.345,350.806z M269.734,323.337H379.61v-27.012H269.734V323.337z"></path> <path style="fill:#507C5C;" d="M393.345,458.47h-274.69c-7.584,0-13.734-6.149-13.734-13.734s6.15-13.734,13.734-13.734H379.61 v-27.012H118.655c-7.584,0-13.734-6.149-13.734-13.734s6.15-13.734,13.734-13.734h274.69c7.584,0,13.734,6.149,13.734,13.734 v54.481C407.079,452.321,400.931,458.47,393.345,458.47z"></path> <path style="fill:#507C5C;" d="M120.027,332.574c-2.044,0-4.097-0.456-6.005-1.383c-4.727-2.299-7.728-7.095-7.728-12.351V193.161 c0-5.258,3.001-10.052,7.728-12.351c4.725-2.296,10.352-1.699,14.487,1.548l80.05,62.839c3.317,2.604,5.253,6.586,5.253,10.804 c0,4.218-1.937,8.199-5.253,10.804l-80.05,62.839C126.043,331.578,123.046,332.574,120.027,332.574z M133.763,221.403v69.194 L177.836,256L133.763,221.403z"></path> </g> </g></svg>