<?xml version="1.0" encoding="iso-8859-1"?>
<!-- Uploaded to: SVG Repo, www.svgrepo.com, Generator: SVG Repo Mixer Tools -->
<svg version="1.1" id="Layer_1" xmlns="http://www.w3.org/2000/svg" xmlns:xlink="http://www.w3.org/1999/xlink" 
	 viewBox="0 0 512 512" xml:space="preserve">
<rect x="67.544" y="4" style="fill:#FFFFFF;" width="376.96" height="504"/>
<path style="fill:#AAC1CE;" d="M440.456,8v496H71.544V8H440.456 M448.456,0H63.544v512h384.912V0z"/>
<g>
	<path style="fill:#415E72;" d="M130.576,117.512l85.6-39.752v18.896L151.464,125v0.36l64.712,28.344V172.6l-85.6-39.752
		L130.576,117.512z"/>
	<path style="fill:#415E72;" d="M229.352,179.728L267.504,50.48h18.008L247.36,179.728H229.352z"/>
	<path style="fill:#415E72;" d="M381.424,133.376l-85.6,39.2v-18.872L362,125.36V125l-66.136-28.344V77.76l85.6,39.2
		L381.424,133.376z"/>
</g>
<g>
	<path style="fill:#32BEA6;" d="M136.056,301.352h-18.704l20-95.528h18.704l-7.2,34.016c3.576-2.92,7.552-5.32,11.8-7.136
		c3.736-1.472,7.72-2.216,11.736-2.184c4.896-0.272,9.696,1.464,13.288,4.8c3.344,3.352,5.128,7.952,4.928,12.68
		c-0.208,4.344-0.824,8.664-1.832,12.896l-8.472,40.472H161.6l8.664-41.248c0.672-2.832,1.128-5.704,1.368-8.6
		c0.096-2.064-0.688-4.08-2.152-5.536c-1.6-1.456-3.712-2.208-5.864-2.088c-3.28,0.056-6.44,1.2-8.992,3.256
		c-3.656,2.776-6.584,6.392-8.528,10.552c-1.912,5.272-3.352,10.696-4.304,16.224L136.056,301.352z"/>
	<path style="fill:#32BEA6;" d="M203.312,246.024l2.864-13.872h9.12l2.28-11.08l21.44-12.904l-5.016,24h11.408l-2.864,13.872
		h-11.472l-6.064,29c-0.688,2.968-1.216,5.968-1.6,8.992c-0.072,1.272,0.432,2.504,1.368,3.36c1.464,0.952,3.216,1.376,4.952,1.2
		c0.824,0,2.88-0.152,6.184-0.456L232.96,302c-3.256,0.664-6.576,0.992-9.904,0.984c-5.096,0.432-10.184-0.92-14.4-3.816
		c-3.048-2.656-4.704-6.56-4.496-10.592c0.432-4.96,1.232-9.888,2.4-14.728l5.8-27.832L203.312,246.024z"/>
	<path style="fill:#32BEA6;" d="M256.944,232.152h17.6l-1.744,8.408c5.568-6.096,13.344-9.712,21.6-10.04
		c4.264-0.272,8.504,0.872,12.056,3.256c2.856,2.224,4.784,5.432,5.408,8.992c2.664-3.712,6.2-6.704,10.296-8.728
		c4.288-2.304,9.08-3.512,13.944-3.52c4.72-0.28,9.352,1.312,12.904,4.432c3.128,3.08,4.808,7.344,4.624,11.736
		c-0.248,4.176-0.864,8.32-1.832,12.384l-8.84,42.28h-18.696l8.856-42.288c1.064-5.304,1.6-8.304,1.6-8.992
		c0.088-1.688-0.544-3.328-1.728-4.528c-1.44-1.208-3.296-1.808-5.176-1.664c-5.112,0.256-9.768,3.008-12.448,7.368
		c-3.496,5.712-5.808,12.072-6.784,18.704l-6.576,31.408h-18.672l8.728-41.832c0.744-3.088,1.248-6.224,1.504-9.384
		c0.056-1.696-0.616-3.328-1.848-4.496c-1.408-1.232-3.248-1.864-5.12-1.76c-2.232,0.056-4.408,0.688-6.32,1.832
		c-2.224,1.264-4.168,2.968-5.704,5.016c-1.824,2.496-3.24,5.272-4.2,8.208c-0.536,1.56-1.376,5.104-2.536,10.624l-6.648,31.8
		H242.48L256.944,232.152z"/>
	<path style="fill:#32BEA6;" d="M361.6,301.352l20-95.528h18.64l-19.944,95.528H361.6z"/>
</g>
<g>
	<rect x="112" y="417.92" style="fill:#AAC1CE;" width="288" height="8"/>
	<rect x="112" y="451.68" style="fill:#AAC1CE;" width="288" height="8"/>
	<rect x="112" y="384.16" style="fill:#AAC1CE;" width="288" height="8"/>
	<rect x="112" y="350.44" style="fill:#AAC1CE;" width="288" height="8"/>
</g>
</svg>