<?xml version="1.0" encoding="utf-8"?>
<!-- Uploaded to: SVG Repo, www.svgrepo.com, Generator: SVG Repo Mixer Tools -->
<svg width="800px" height="800px" viewBox="0 0 1024 1024" class="icon"  version="1.1" xmlns="http://www.w3.org/2000/svg"><path d="M768 938.666667H170.666667V170.666667h426.666666l170.666667 170.666666z" fill="#42A5F5" /><path d="M853.333333 853.333333H256V85.333333h426.666667l170.666666 170.666667z" fill="#90CAF9" /><path d="M821.333333 277.333333H661.333333V117.333333z" fill="#E1F5FE" /><path d="M522.666667 603.733333c0-100.266667 76.8-93.866667 76.8-153.6 0-14.933333-4.266667-44.8-42.666667-44.8-42.666667 0-44.8 34.133333-44.8 42.666667h-57.6c0-14.933333 6.4-89.6 102.4-89.6 98.133333 0 100.266667 76.8 100.266667 91.733333 0 74.666667-81.066667 85.333333-81.066667 155.733334h-53.333333z m-4.266667 74.666667c0-4.266667 0-32 32-32 29.866667 0 32 27.733333 32 32 0 8.533333-4.266667 29.866667-32 29.866667s-32-21.333333-32-29.866667z" fill="#1976D2" /></svg>