<?xml version="1.0" encoding="iso-8859-1"?>
<!-- Uploaded to: SVG Repo, www.svgrepo.com, Generator: SVG Repo Mixer Tools -->
<svg version="1.1" id="Layer_1" xmlns="http://www.w3.org/2000/svg" xmlns:xlink="http://www.w3.org/1999/xlink" 
   viewBox="0 0 512 512" xml:space="preserve">
  <rect x="239.304" y="289.525" style="fill:#D7D7D7;" width="33.391" height="112.818"/>
  <rect x="256" y="289.525" style="fill:#B0B0B0;" width="16.696" height="112.818"/>
  <g>
    <rect x="59.325" y="348.483" style="fill:#D7D7D7;" width="33.391" height="53.86"/>
    <rect x="118.254" y="225.012" transform="matrix(-0.4931 -0.87 0.87 -0.4931 -38.6611 529.5649)" style="fill:#D7D7D7;" width="33.392" height="102.068"/>
  </g>
  <g>
    <rect x="419.283" y="348.483" style="fill:#B0B0B0;" width="33.391" height="53.86"/>
    <rect x="326.011" y="259.346" transform="matrix(-0.87 -0.4931 0.4931 -0.87 568.9533 702.1093)" style="fill:#B0B0B0;" width="102.069" height="33.392"/>
    <path style="fill:#B0B0B0;" d="M332.025,478.372H179.975v-16.696c0-41.921,34.105-76.025,76.025-76.025
    s76.025,34.105,76.025,76.025L332.025,478.372L332.025,478.372z"/>
  </g>
  <path style="fill:#8B8B8B;" d="M332.025,478.372H256c0,0,0-60.4,0-92.721c41.921,0,76.025,34.105,76.025,76.025L332.025,478.372
  L332.025,478.372z"/>
  <path style="fill:#B0B0B0;" d="M152.051,478.372H0v-16.696c0-41.921,34.105-76.025,76.025-76.025s76.025,34.105,76.025,76.025
  V478.372z"/>
  <path style="fill:#8B8B8B;" d="M512,478.372H359.949v-16.696c0-41.921,34.105-76.025,76.025-76.025S512,419.755,512,461.676V478.372
  z"/>
  <g>
    <path style="fill:#B5E45F;" d="M76.025,365.178c-23.474,0-42.572-19.096-42.572-42.571c0-23.474,19.098-42.572,42.572-42.572
    c23.473,0,42.571,19.098,42.571,42.572C118.596,346.082,99.499,365.178,76.025,365.178z"/>
    <path style="fill:#B5E45F;" d="M435.975,365.178c-23.473,0-42.571-19.096-42.571-42.571c0-23.474,19.098-42.572,42.571-42.572
    c23.474,0,42.572,19.098,42.572,42.572C478.546,346.082,459.449,365.178,435.975,365.178z"/>
    <path style="fill:#B5E45F;" d="M256,296.786c-72.553,0-131.578-59.026-131.578-131.58c0-72.553,59.026-131.578,131.578-131.578
    s131.578,59.026,131.578,131.578S328.553,296.786,256,296.786z"/>
  </g>
  <g>
    <path style="fill:#7DBB4E;" d="M256,296.786c0-44.631,0-237.135,0-263.158c72.553,0,131.578,59.026,131.578,131.578
    S328.553,296.786,256,296.786z"/>
    <path style="fill:#7DBB4E;" d="M256,235.257c-38.626,0-70.051-31.425-70.051-70.052S217.374,95.156,256,95.156
    s70.051,31.423,70.051,70.05S294.626,235.257,256,235.257z"/>
  </g>
  <path style="fill:#588D3F;" d="M256,235.257c0-31.047,0-97.152,0-140.101c38.626,0,70.051,31.423,70.051,70.05
  S294.626,235.257,256,235.257z"/>
</svg>